{"accessors" : [{"bufferView" : 0, "byteOffset" : 0, "componentType" : 5123, "count" : 6864, "type" : "SCALAR", "max" : [6863], "min" : [0]}, {"bufferView" : 1, "byteOffset" : 0, "componentType" : 5126, "count" : 6864, "type" : "VEC3", "max" : [0.1979495882987976, 4.997950553894043, -2.799999952316284], "min" : [-5.997949600219727, -0.19794961810112, -2.9244494438171387], "name" : "POSITION"}, {"bufferView" : 1, "byteOffset" : 12, "componentType" : 5126, "count" : 6864, "type" : "VEC3", "max" : [1.0000044107437134, 1.0000044107437134, 1.0000044107437134], "min" : [-1.0000044107437134, -1.0000044107437134, -1.0000044107437134], "name" : "NORMAL"}, {"bufferView" : 1, "byteOffset" : 24, "componentType" : 5126, "count" : 6864, "type" : "VEC2", "max" : [1.0000001192092896, 1], "min" : [0, -1.1920928955078125E-07], "name" : "TEXCOORD_0"}, {"bufferView" : 0, "byteOffset" : 13728, "componentType" : 5123, "count" : 5136, "type" : "SCALAR", "max" : [5135], "min" : [0]}, {"bufferView" : 2, "byteOffset" : 0, "componentType" : 5126, "count" : 5136, "type" : "VEC3", "max" : [0.10000000149011612, 4.90000057220459, 0], "min" : [-5.90000057220459, -0.10000001639127731, -2.8000004291534424], "name" : "POSITION"}, {"bufferView" : 2, "byteOffset" : 12, "componentType" : 5126, "count" : 5136, "type" : "VEC3", "max" : [1.0000044107437134, 1.0000044107437134, 1.0000044107437134], "min" : [-1.0000044107437134, -1.0000044107437134, -1.0000044107437134], "name" : "NORMAL"}, {"bufferView" : 2, "byteOffset" : 24, "componentType" : 5126, "count" : 5136, "type" : "VEC2", "max" : [1.0000001192092896, 1], "min" : [0, -1.1920928955078125E-07], "name" : "TEXCOORD_0"}, {"bufferView" : 0, "byteOffset" : 24000, "componentType" : 5123, "count" : 2856, "type" : "SCALAR", "max" : [2855], "min" : [0]}, {"bufferView" : 3, "byteOffset" : 0, "componentType" : 5126, "count" : 2856, "type" : "VEC3", "max" : [-0.10000000149011612, 4.900001049041748, 0], "min" : [-5.700000762939453, -0.10000015050172806, -0.2000000923871994], "name" : "POSITION"}, {"bufferView" : 3, "byteOffset" : 12, "componentType" : 5126, "count" : 2856, "type" : "VEC3", "max" : [1.0000044107437134, 1.0000044107437134, 1.0000044107437134], "min" : [-1.0000044107437134, -1.0000044107437134, -1.0000044107437134], "name" : "NORMAL"}, {"bufferView" : 3, "byteOffset" : 24, "componentType" : 5126, "count" : 2856, "type" : "VEC2", "max" : [0, 1], "min" : [0, 1], "name" : "TEXCOORD_0"}, {"bufferView" : 0, "byteOffset" : 29712, "componentType" : 5123, "count" : 3792, "type" : "SCALAR", "max" : [3791], "min" : [0]}, {"bufferView" : 4, "byteOffset" : 0, "componentType" : 5126, "count" : 3792, "type" : "VEC3", "max" : [0.10000000149011612, 4.700000762939453, 5.7116793072964356E-08], "min" : [-5.90000057220459, 0.09999997913837433, -0.2000000923871994], "name" : "POSITION"}, {"bufferView" : 4, "byteOffset" : 12, "componentType" : 5126, "count" : 3792, "type" : "VEC3", "max" : [1.0000044107437134, 1.0000044107437134, 1.0000044107437134], "min" : [-1.0000044107437134, -1.0000044107437134, -1.0000044107437134], "name" : "NORMAL"}, {"bufferView" : 4, "byteOffset" : 24, "componentType" : 5126, "count" : 3792, "type" : "VEC2", "max" : [0, 1], "min" : [0, 1], "name" : "TEXCOORD_0"}], "asset" : {"generator" : "Aspose.3D 24.9.1", "version" : "2.0"}, "buffers" : [{"uri" : "data:application/octet-stream;base64,", "byteLength" : 634052}], "bufferViews" : [{"buffer" : 0, "byteOffset" : 0, "byteLength" : 37296, "target" : 34963}, {"buffer" : 0, "byteOffset" : 37300, "byteLength" : 219648, "byteStride" : 32, "target" : 34962}, {"buffer" : 0, "byteOffset" : 256952, "byteLength" : 164352, "byteStride" : 32, "target" : 34962}, {"buffer" : 0, "byteOffset" : 421308, "byteLength" : 91392, "byteStride" : 32, "target" : 34962}, {"buffer" : 0, "byteOffset" : 512704, "byteLength" : 121344, "byteStride" : 32, "target" : 34962}], "materials" : [{"name" : "grey-metal", "pbrMetallicRoughness" : {"baseColorFactor" : [0.1106744185090065, 0.1106744185090065, 0.1106744185090065, 1], "metallicFactor" : 1, "roughnessFactor" : 1}, "emissiveFactor" : [0, 0, 0], "alphaMode" : "OPAQUE", "doubleSided" : false}], "meshes" : [{"primitives" : [{"attributes" : {"POSITION" : 1, "NORMAL" : 2, "TEXCOORD_0" : 3}, "indices" : 0, "material" : 0, "mode" : 4}], "name" : "Plane.089"}, {"primitives" : [{"attributes" : {"POSITION" : 5, "NORMAL" : 6, "TEXCOORD_0" : 7}, "indices" : 4, "material" : 0, "mode" : 4}], "name" : "Plane.090"}, {"primitives" : [{"attributes" : {"POSITION" : 9, "NORMAL" : 10, "TEXCOORD_0" : 11}, "indices" : 8, "material" : 0, "mode" : 4}], "name" : "Plane.091"}, {"primitives" : [{"attributes" : {"POSITION" : 13, "NORMAL" : 14, "TEXCOORD_0" : 15}, "indices" : 12, "material" : 0, "mode" : 4}], "name" : "Plane.092"}], "nodes" : [{"matrix" : [100, 0, 0, 0, 0, -1.6292067955264296E-05, -99.99999999999866, 0, 0, 99.99999999999866, -1.6292067955264296E-05, 0, 290, 280, 240.00001525878906, 1], "mesh" : 0, "name" : "base.005"}, {"matrix" : [100, 0, 0, 0, 0, -1.6292067955264296E-05, -99.99999999999866, 0, 0, 99.99999999999866, -1.6292067955264296E-05, 0, 290, 280, 240.00001525878906, 1], "mesh" : 1, "name" : "Column-side.001"}, {"matrix" : [100, 0, 0, 0, 0, -1.6292067955264296E-05, -99.99999999999866, 0, 0, 99.99999999999866, -1.6292067955264296E-05, 0, 290, 280, 240.00001525878906, 1], "mesh" : 2, "name" : "top-bar.001"}, {"matrix" : [100, 0, 0, 0, 0, -1.6292067955264296E-05, -99.99999999999866, 0, 0, 99.99999999999866, -1.6292067955264296E-05, 0, 290, 280, 240.00001525878906, 1], "mesh" : 3, "name" : "top-bar-2.001"}], "scene" : 0, "scenes" : [{"nodes" : [0, 1, 2, 3]}]}