{"accessors" : [{"bufferView" : 0, "byteOffset" : 0, "componentType" : 5123, "count" : 2568, "type" : "SCALAR", "max" : [2567], "min" : [0]}, {"bufferView" : 1, "byteOffset" : 0, "componentType" : 5126, "count" : 2568, "type" : "VEC3", "max" : [0.10000000149011612, 0.10000001639127731, 0], "min" : [-5.900000095367432, -0.10000001639127731, -2.8000001907348633], "name" : "POSITION"}, {"bufferView" : 1, "byteOffset" : 12, "componentType" : 5126, "count" : 2568, "type" : "VEC3", "max" : [1.0000044107437134, 1.0000044107437134, 1.0000044107437134], "min" : [-1.0000044107437134, -1.0000044107437134, -1.0000044107437134], "name" : "NORMAL"}, {"bufferView" : 1, "byteOffset" : 24, "componentType" : 5126, "count" : 2568, "type" : "VEC2", "max" : [1.0000001192092896, 1], "min" : [0, -1.1920928955078125E-07], "name" : "TEXCOORD_0"}, {"bufferView" : 0, "byteOffset" : 5136, "componentType" : 5123, "count" : 1428, "type" : "SCALAR", "max" : [1427], "min" : [0]}, {"bufferView" : 2, "byteOffset" : 0, "componentType" : 5126, "count" : 1428, "type" : "VEC3", "max" : [-0.10000000149011612, -3.4059796649721363E-10, 0], "min" : [-5.700000286102295, -0.10000015050172806, -0.20000006258487701], "name" : "POSITION"}, {"bufferView" : 2, "byteOffset" : 12, "componentType" : 5126, "count" : 1428, "type" : "VEC3", "max" : [1.0000044107437134, 1.0000044107437134, 1.0000044107437134], "min" : [-1.0000044107437134, -1.0000044107437134, -1.0000044107437134], "name" : "NORMAL"}, {"bufferView" : 2, "byteOffset" : 24, "componentType" : 5126, "count" : 1428, "type" : "VEC2", "max" : [0, 1], "min" : [0, 1], "name" : "TEXCOORD_0"}, {"bufferView" : 0, "byteOffset" : 7992, "componentType" : 5123, "count" : 3792, "type" : "SCALAR", "max" : [3791], "min" : [0]}, {"bufferView" : 3, "byteOffset" : 0, "componentType" : 5126, "count" : 3792, "type" : "VEC3", "max" : [0.10000000149011612, 4.700000762939453, 5.7116793072964356E-08], "min" : [-5.90000057220459, 0.09999997913837433, -0.2000000923871994], "name" : "POSITION"}, {"bufferView" : 3, "byteOffset" : 12, "componentType" : 5126, "count" : 3792, "type" : "VEC3", "max" : [1.0000044107437134, 1.0000044107437134, 1.0000044107437134], "min" : [-1.0000044107437134, -1.0000044107437134, -1.0000044107437134], "name" : "NORMAL"}, {"bufferView" : 3, "byteOffset" : 24, "componentType" : 5126, "count" : 3792, "type" : "VEC2", "max" : [0, 1], "min" : [0, 1], "name" : "TEXCOORD_0"}, {"bufferView" : 0, "byteOffset" : 15576, "componentType" : 5123, "count" : 2856, "type" : "SCALAR", "max" : [2855], "min" : [0]}, {"bufferView" : 4, "byteOffset" : 0, "componentType" : 5126, "count" : 2856, "type" : "VEC3", "max" : [0.1979495882987976, 0.1979498267173767, -2.799999952316284], "min" : [-5.997949600219727, -0.19794961810112, -2.9244492053985596], "name" : "POSITION"}, {"bufferView" : 4, "byteOffset" : 12, "componentType" : 5126, "count" : 2856, "type" : "VEC3", "max" : [1.0000044107437134, 1.0000044107437134, 1.0000044107437134], "min" : [-1.0000044107437134, -1.0000044107437134, -1.0000044107437134], "name" : "NORMAL"}, {"bufferView" : 4, "byteOffset" : 24, "componentType" : 5126, "count" : 2856, "type" : "VEC2", "max" : [1.0000001192092896, 1], "min" : [0, -1.1920928955078125E-07], "name" : "TEXCOORD_0"}], "asset" : {"generator" : "Aspose.3D 24.9.1", "version" : "2.0"}, "buffers" : [{"uri" : "data:application/octet-stream;base64,", "byteLength" : 361916}], "bufferViews" : [{"buffer" : 0, "byteOffset" : 0, "byteLength" : 21288, "target" : 34963}, {"buffer" : 0, "byteOffset" : 21292, "byteLength" : 82176, "byteStride" : 32, "target" : 34962}, {"buffer" : 0, "byteOffset" : 103472, "byteLength" : 45696, "byteStride" : 32, "target" : 34962}, {"buffer" : 0, "byteOffset" : 149172, "byteLength" : 121344, "byteStride" : 32, "target" : 34962}, {"buffer" : 0, "byteOffset" : 270520, "byteLength" : 91392, "byteStride" : 32, "target" : 34962}], "materials" : [{"name" : "grey-metal", "pbrMetallicRoughness" : {"baseColorFactor" : [0.1106744185090065, 0.1106744185090065, 0.1106744185090065, 1], "metallicFactor" : 1, "roughnessFactor" : 1}, "emissiveFactor" : [0, 0, 0], "alphaMode" : "OPAQUE", "doubleSided" : false}], "meshes" : [{"primitives" : [{"attributes" : {"POSITION" : 1, "NORMAL" : 2, "TEXCOORD_0" : 3}, "indices" : 0, "material" : 0, "mode" : 4}], "name" : "Plane.089"}, {"primitives" : [{"attributes" : {"POSITION" : 5, "NORMAL" : 6, "TEXCOORD_0" : 7}, "indices" : 4, "material" : 0, "mode" : 4}], "name" : "Plane.090"}, {"primitives" : [{"attributes" : {"POSITION" : 9, "NORMAL" : 10, "TEXCOORD_0" : 11}, "indices" : 8, "material" : 0, "mode" : 4}], "name" : "Plane.091"}, {"primitives" : [{"attributes" : {"POSITION" : 13, "NORMAL" : 14, "TEXCOORD_0" : 15}, "indices" : 12, "material" : 0, "mode" : 4}], "name" : "Plane.092"}], "nodes" : [{"matrix" : [100, 0, 0, 0, 0, -1.6292067955264296E-05, -99.99999999999866, 0, 0, 99.99999999999866, -1.6292067955264296E-05, 0, 290, 280, 240.00001525878906, 1], "mesh" : 0, "name" : "Column-side.013"}, {"matrix" : [100, 0, 0, 0, 0, -1.6292067955264296E-05, -99.99999999999866, 0, 0, 99.99999999999866, -1.6292067955264296E-05, 0, 290, 280, 240.00001525878906, 1], "mesh" : 1, "name" : "Column-side.014"}, {"matrix" : [100, 0, 0, 0, 0, -1.6292067955264296E-05, -99.99999999999866, 0, 0, 99.99999999999866, -1.6292067955264296E-05, 0, 290, 280, 240.00001525878906, 1], "mesh" : 2, "name" : "Column-side.015"}, {"matrix" : [100, 0, 0, 0, 0, -1.6292067955264296E-05, -99.99999999999866, 0, 0, 99.99999999999866, -1.6292067955264296E-05, 0, 290, 280, 240.00001525878906, 1], "mesh" : 3, "name" : "Column-side.017"}], "scene" : 0, "scenes" : [{"nodes" : [0, 1, 2, 3]}]}