{"accessors" : [{"bufferView" : 0, "byteOffset" : 0, "componentType" : 5123, "count" : 5640, "type" : "SCALAR", "max" : [3627], "min" : [0]}, {"bufferView" : 1, "byteOffset" : 0, "componentType" : 5126, "count" : 3628, "type" : "VEC3", "max" : [2.6363511085510254, 2.8764638900756836, 2.3971869945526123], "min" : [0.7754309773445129, 1.0819989442825317, 2.2741570472717285], "name" : "POSITION"}, {"bufferView" : 1, "byteOffset" : 12, "componentType" : 5126, "count" : 3628, "type" : "VEC2", "max" : [0.9821439981460571, 1], "min" : [0, 0], "name" : "TEXCOORD_0"}, {"bufferView" : 1, "byteOffset" : 20, "componentType" : 5126, "count" : 3628, "type" : "VEC3", "max" : [1.0000044107437134, 1.0000044107437134, 1.0000044107437134], "min" : [-1.0000044107437134, -1.0000044107437134, -1.0000044107437134], "name" : "NORMAL"}, {"bufferView" : 0, "byteOffset" : 11280, "componentType" : 5123, "count" : 6, "type" : "SCALAR", "max" : [3], "min" : [0]}, {"bufferView" : 2, "byteOffset" : 0, "componentType" : 5126, "count" : 4, "type" : "VEC3", "max" : [2.615272045135498, 2.665472984313965, 2.3781259059906006], "min" : [0.7965109944343567, 1.1156599521636963, 2.3781259059906006], "name" : "POSITION"}, {"bufferView" : 2, "byteOffset" : 12, "componentType" : 5126, "count" : 4, "type" : "VEC2", "max" : [0.8521260023117065, 1], "min" : [0, 0], "name" : "TEXCOORD_0"}, {"bufferView" : 2, "byteOffset" : 20, "componentType" : 5126, "count" : 4, "type" : "VEC3", "max" : [0, 0, -1.0000044107437134], "min" : [0, 0, -1.0000044107437134], "name" : "NORMAL"}], "asset" : {"generator" : "Aspose.3D 24.6.0", "version" : "2.0"}, "buffers" : [{"uri" : "buffer.bin", "byteLength" : 127528}], "bufferViews" : [{"buffer" : 0, "byteOffset" : 0, "byteLength" : 11292, "target" : 34963}, {"buffer" : 0, "byteOffset" : 11296, "byteLength" : 116096, "byteStride" : 32, "target" : 34962}, {"buffer" : 0, "byteOffset" : 127396, "byteLength" : 128, "byteStride" : 32, "target" : 34962}], "meshes" : [{"primitives" : [{"attributes" : {"POSITION" : 1, "TEXCOORD_0" : 2, "NORMAL" : 3}, "indices" : 0, "mode" : 4}, {"attributes" : {"POSITION" : 5, "TEXCOORD_0" : 6, "NORMAL" : 7}, "indices" : 4, "mode" : 4}], "name" : ""}], "nodes" : [{"mesh" : 0, "name" : "Plane.081_Plane.123"}], "scene" : 0, "scenes" : [{"nodes" : [0]}]}