{"accessors" : [{"bufferView" : 0, "byteOffset" : 0, "componentType" : 5125, "count" : 79194, "type" : "SCALAR", "max" : [79193], "min" : [0]}, {"bufferView" : 1, "byteOffset" : 0, "componentType" : 5126, "count" : 79194, "type" : "VEC3", "max" : [4.936556816101074, -0.10340991616249084, 2.713623523712158], "min" : [-0.6363544464111328, -0.14870955049991608, 0.09079539775848389], "name" : "POSITION"}, {"bufferView" : 1, "byteOffset" : 12, "componentType" : 5126, "count" : 79194, "type" : "VEC3", "max" : [1.0000044107437134, 0.04579995572566986, 1.0000044107437134], "min" : [-1.0000044107437134, -1.0000044107437134, -1.0000044107437134], "name" : "NORMAL"}, {"bufferView" : 1, "byteOffset" : 24, "componentType" : 5126, "count" : 79194, "type" : "VEC2", "max" : [0, 1], "min" : [0, 1], "name" : "TEXCOORD_0"}], "asset" : {"generator" : "Aspose.3D 24.9.1", "version" : "2.0"}, "buffers" : [{"uri" : "data:application/octet-stream;base64,", "byteLength" : 2850992}], "bufferViews" : [{"buffer" : 0, "byteOffset" : 0, "byteLength" : 316776, "target" : 34963}, {"buffer" : 0, "byteOffset" : 316780, "byteLength" : 2534208, "byteStride" : 32, "target" : 34962}], "materials" : [{"name" : "silver_pure", "pbrMetallicRoughness" : {"baseColorFactor" : [0.800000011920929, 0.800000011920929, 0.800000011920929, 1], "metallicFactor" : 1, "roughnessFactor" : 1}, "emissiveFactor" : [0, 0, 0], "alphaMode" : "OPAQUE", "doubleSided" : false}], "meshes" : [{"primitives" : [{"attributes" : {"POSITION" : 1, "NORMAL" : 2, "TEXCOORD_0" : 3}, "indices" : 0, "material" : 0, "mode" : 4}], "name" : "Plane.089"}], "nodes" : [{"matrix" : [101.115226745584, 0, -6.589505374595208E-05, 0, -6.56396896703519E-05, -1.640992044329457E-05, -100.7233734130632, 0, -1.0235389129178958E-11, 96.40329742431513, -1.5706090727481848E-05, 0, -217.407958984375, 0.034308433532714844, 235.8397979736328, 1], "mesh" : 0, "name" : "alimium walls"}], "scene" : 0, "scenes" : [{"nodes" : [0]}]}