{
  "accessors": [
    {
      "bufferView": 2,
      "componentType": 5126,
      "count": 32,
      "max": [
        0.13303425908088684,
        1.0035746097564697,
        2.9802322387695313e-08
      ],
      "min": [
        -0.13303425908088684,
        -1.0035744905471802,
        -0.1197662428021431
      ],
      "type": "VEC3"
    },
    {
      "bufferView": 2,
      "byteOffset": 384,
      "componentType": 5126,
      "count": 32,
      "max": [
        1.0,
        1.0,
        1.0
      ],
      "min": [
        -1.0,
        -1.0,
        0.0
      ],
      "type": "VEC3"
    },
    {
      "bufferView": 3,
      "componentType": 5126,
      "count": 32,
      "max": [
        1.0,
        1.331784460489871e-06,
        1.0,
        1.0
      ],
      "min": [
        0.0,
        -6.635206091232249e-07,
        -1.0,
        1.0
      ],
      "type": "VEC4"
    },
    {
      "bufferView": 1,
      "componentType": 5126,
      "count": 32,
      "max": [
        0.996666669845581,
        0.999022901058197
      ],
      "min": [
        0.0014213608810678124,
        0.0015711403684690595
      ],
      "type": "VEC2"
    },
    {
      "bufferView": 1,
      "byteOffset": 256,
      "componentType": 5126,
      "count": 32,
      "max": [
        0.996666669845581,
        0.999022901058197
      ],
      "min": [
        0.0014213608810678124,
        0.0015711403684690595
      ],
      "type": "VEC2"
    },
    {
      "bufferView": 1,
      "byteOffset": 512,
      "componentType": 5126,
      "count": 32,
      "max": [
        0.996666669845581,
        0.999022901058197
      ],
      "min": [
        0.0014213608810678124,
        0.0015711403684690595
      ],
      "type": "VEC2"
    },
    {
      "bufferView": 1,
      "byteOffset": 768,
      "componentType": 5126,
      "count": 32,
      "max": [
        0.996666669845581,
        0.999022901058197
      ],
      "min": [
        0.0014213608810678124,
        0.0015711403684690595
      ],
      "type": "VEC2"
    },
    {
      "bufferView": 0,
      "componentType": 5125,
      "count": 48,
      "type": "SCALAR"
    },
    {
      "bufferView": 2,
      "byteOffset": 768,
      "componentType": 5126,
      "count": 17220,
      "max": [
        0.16190800070762634,
        1.9612118005752563,
        0.08119509369134903
      ],
      "min": [
        -0.16190800070762634,
        -0.003554208902642131,
        -0.0606418214738369
      ],
      "type": "VEC3"
    },
    {
      "bufferView": 2,
      "byteOffset": 207408,
      "componentType": 5126,
      "count": 17220,
      "max": [
        1.0,
        0.9809972047805786,
        1.0
      ],
      "min": [
        -1.0,
        -0.9809959530830383,
        -1.0
      ],
      "type": "VEC3"
    },
    {
      "bufferView": 3,
      "byteOffset": 512,
      "componentType": 5126,
      "count": 17220,
      "max": [
        0.9747570753097534,
        0.9999992251396179,
        0.9746322631835938,
        1.0
      ],
      "min": [
        -0.9744502902030945,
        -0.9999988675117493,
        -0.9744897484779358,
        1.0
      ],
      "type": "VEC4"
    },
    {
      "bufferView": 1,
      "byteOffset": 1024,
      "componentType": 5126,
      "count": 17220,
      "max": [
        0.8128842115402222,
        0.9189125895500183
      ],
      "min": [
        0.7732171416282654,
        0.7080674767494202
      ],
      "type": "VEC2"
    },
    {
      "bufferView": 1,
      "byteOffset": 138784,
      "componentType": 5126,
      "count": 17220,
      "max": [
        0.8128842115402222,
        0.9189125895500183
      ],
      "min": [
        0.7732171416282654,
        0.7080674767494202
      ],
      "type": "VEC2"
    },
    {
      "bufferView": 1,
      "byteOffset": 276544,
      "componentType": 5126,
      "count": 17220,
      "max": [
        0.8128842115402222,
        0.9189125895500183
      ],
      "min": [
        0.7732171416282654,
        0.7080674767494202
      ],
      "type": "VEC2"
    },
    {
      "bufferView": 1,
      "byteOffset": 414304,
      "componentType": 5126,
      "count": 17220,
      "max": [
        0.8128842115402222,
        0.9189125895500183
      ],
      "min": [
        0.7732171416282654,
        0.7080674767494202
      ],
      "type": "VEC2"
    },
    {
      "bufferView": 0,
      "byteOffset": 192,
      "componentType": 5125,
      "count": 82656,
      "type": "SCALAR"
    },
    {
      "bufferView": 2,
      "byteOffset": 414048,
      "componentType": 5126,
      "count": 266,
      "max": [
        0.019696176052093506,
        0.020000021904706955,
        0.9872447848320007
      ],
      "min": [
        -0.019696176052093506,
        -0.020000021904706955,
        -0.9872447848320007
      ],
      "type": "VEC3"
    },
    {
      "bufferView": 2,
      "byteOffset": 417240,
      "componentType": 5126,
      "count": 266,
      "max": [
        0.9848078489303589,
        1.0,
        0.9669020771980286
      ],
      "min": [
        -0.9848078489303589,
        -1.0,
        -0.9669020771980286
      ],
      "type": "VEC3"
    },
    {
      "bufferView": 3,
      "byteOffset": 276032,
      "componentType": 5126,
      "count": 266,
      "max": [
        1.0,
        0.9940329790115356,
        1.0,
        1.0
      ],
      "min": [
        -1.0,
        -0.9943060874938965,
        -1.0,
        1.0
      ],
      "type": "VEC4"
    },
    {
      "bufferView": 1,
      "byteOffset": 552064,
      "componentType": 5126,
      "count": 266,
      "max": [
        0.9660362005233765,
        0.8246651291847229
      ],
      "min": [
        0.7077949047088623,
        0.0013865383807569742
      ],
      "type": "VEC2"
    },
    {
      "bufferView": 1,
      "byteOffset": 554192,
      "componentType": 5126,
      "count": 266,
      "max": [
        0.9660362005233765,
        0.8246651291847229
      ],
      "min": [
        0.7077949047088623,
        0.0013865383807569742
      ],
      "type": "VEC2"
    },
    {
      "bufferView": 1,
      "byteOffset": 556320,
      "componentType": 5126,
      "count": 266,
      "max": [
        0.9660362005233765,
        0.8246651291847229
      ],
      "min": [
        0.7077949047088623,
        0.0013865383807569742
      ],
      "type": "VEC2"
    },
    {
      "bufferView": 1,
      "byteOffset": 558448,
      "componentType": 5126,
      "count": 266,
      "max": [
        0.9660362005233765,
        0.8246651291847229
      ],
      "min": [
        0.7077949047088623,
        0.0013865383807569742
      ],
      "type": "VEC2"
    },
    {
      "bufferView": 0,
      "byteOffset": 330816,
      "componentType": 5125,
      "count": 1080,
      "type": "SCALAR"
    },
    {
      "bufferView": 2,
      "byteOffset": 420432,
      "componentType": 5126,
      "count": 266,
      "max": [
        0.019696176052093506,
        0.020000021904706955,
        0.9872447848320007
      ],
      "min": [
        -0.019696176052093506,
        -0.020000021904706955,
        -0.9872447848320007
      ],
      "type": "VEC3"
    },
    {
      "bufferView": 2,
      "byteOffset": 423624,
      "componentType": 5126,
      "count": 266,
      "max": [
        0.9848078489303589,
        1.0,
        0.9669020771980286
      ],
      "min": [
        -0.9848078489303589,
        -1.0,
        -0.9669020771980286
      ],
      "type": "VEC3"
    },
    {
      "bufferView": 3,
      "byteOffset": 280288,
      "componentType": 5126,
      "count": 266,
      "max": [
        1.0,
        0.9848078489303589,
        1.0,
        1.0
      ],
      "min": [
        -1.0,
        -0.9848078489303589,
        -1.5651619833079167e-05,
        1.0
      ],
      "type": "VEC4"
    },
    {
      "bufferView": 1,
      "byteOffset": 560576,
      "componentType": 5126,
      "count": 266,
      "max": [
        0.8859259486198425,
        0.9566114544868469
      ],
      "min": [
        0.0013862386113032699,
        0.7556114792823792
      ],
      "type": "VEC2"
    },
    {
      "bufferView": 1,
      "byteOffset": 562704,
      "componentType": 5126,
      "count": 266,
      "max": [
        0.8859259486198425,
        0.9566114544868469
      ],
      "min": [
        0.0013862386113032699,
        0.7556114792823792
      ],
      "type": "VEC2"
    },
    {
      "bufferView": 1,
      "byteOffset": 564832,
      "componentType": 5126,
      "count": 266,
      "max": [
        0.8859259486198425,
        0.9566114544868469
      ],
      "min": [
        0.0013862386113032699,
        0.7556114792823792
      ],
      "type": "VEC2"
    },
    {
      "bufferView": 1,
      "byteOffset": 566960,
      "componentType": 5126,
      "count": 266,
      "max": [
        0.8859259486198425,
        0.9566114544868469
      ],
      "min": [
        0.0013862386113032699,
        0.7556114792823792
      ],
      "type": "VEC2"
    },
    {
      "bufferView": 0,
      "byteOffset": 335136,
      "componentType": 5125,
      "count": 1080,
      "type": "SCALAR"
    }
  ],
  "asset": {
    "extras": {
      "author": "Sousinho (https://sketchfab.com/sousinho)",
      "license": "SKETCHFAB Standard (https://sketchfab.com/licenses)",
      "source": "https://sketchfab.com/3d-models/ceiling-light-880da42a3951442095cd2c4dd1c069a3",
      "title": "Ceiling light"
    },
    "generator": "Sketchfab-16.12.0",
    "version": "2.0"
  },
  "bufferViews": [
    {
      "buffer": 0,
      "byteLength": 339456,
      "name": "floatBufferViews",
      "target": 34963
    },
    {
      "buffer": 0,
      "byteLength": 569088,
      "byteOffset": 339456,
      "byteStride": 8,
      "name": "floatBufferViews",
      "target": 34962
    },
    {
      "buffer": 0,
      "byteLength": 426816,
      "byteOffset": 908544,
      "byteStride": 12,
      "name": "floatBufferViews",
      "target": 34962
    },
    {
      "buffer": 0,
      "byteLength": 284544,
      "byteOffset": 1335360,
      "byteStride": 16,
      "name": "floatBufferViews",
      "target": 34962
    }
  ],
  "buffers": [
    {
      "byteLength": 1619904,
      "uri": "scene.bin"
    }
  ],
  "extensionsUsed": [
    "KHR_materials_emissive_strength"
  ],
  "images": [
    {
      "uri": "textures/T_Overhead_light_baseColor.png"
    },
    {
      "uri": "textures/T_Overhead_light_metallicRoughness.png"
    },
    {
      "uri": "textures/T_Overhead_light_emissive.png"
    },
    {
      "uri": "textures/T_Overhead_light_normal.png"
    }
  ],
  "materials": [
    {
      "doubleSided": true,
      "emissiveFactor": [
        1.0,
        1.0,
        1.0
      ],
      "emissiveTexture": {
        "index": 2
      },
      "extensions": {
        "KHR_materials_emissive_strength": {
          "emissiveStrength": 2.0999139668159907
        }
      },
      "name": "T_Overhead_light",
      "normalTexture": {
        "index": 3
      },
      "pbrMetallicRoughness": {
        "baseColorTexture": {
          "index": 0
        },
        "metallicRoughnessTexture": {
          "index": 1
        }
      }
    }
  ],
  "meshes": [
    {
      "name": "SM_Overhead_light.001_T_Overhead_light_0",
      "primitives": [
        {
          "attributes": {
            "NORMAL": 1,
            "POSITION": 0,
            "TANGENT": 2,
            "TEXCOORD_0": 3,
            "TEXCOORD_1": 4,
            "TEXCOORD_2": 5,
            "TEXCOORD_3": 6
          },
          "indices": 7,
          "material": 0,
          "mode": 4
        }
      ]
    },
    {
      "name": "Cube.012_T_Overhead_light_0",
      "primitives": [
        {
          "attributes": {
            "NORMAL": 9,
            "POSITION": 8,
            "TANGENT": 10,
            "TEXCOORD_0": 11,
            "TEXCOORD_1": 12,
            "TEXCOORD_2": 13,
            "TEXCOORD_3": 14
          },
          "indices": 15,
          "material": 0,
          "mode": 4
        }
      ]
    },
    {
      "name": "Cylinder.068_T_Overhead_light_0",
      "primitives": [
        {
          "attributes": {
            "NORMAL": 17,
            "POSITION": 16,
            "TANGENT": 18,
            "TEXCOORD_0": 19,
            "TEXCOORD_1": 20,
            "TEXCOORD_2": 21,
            "TEXCOORD_3": 22
          },
          "indices": 23,
          "material": 0,
          "mode": 4
        }
      ]
    },
    {
      "name": "Cylinder.069_T_Overhead_light_0",
      "primitives": [
        {
          "attributes": {
            "NORMAL": 25,
            "POSITION": 24,
            "TANGENT": 26,
            "TEXCOORD_0": 27,
            "TEXCOORD_1": 28,
            "TEXCOORD_2": 29,
            "TEXCOORD_3": 30
          },
          "indices": 31,
          "material": 0,
          "mode": 4
        }
      ]
    }
  ],
  "nodes": [
    {
      "children": [
        1
      ],
      "matrix": [
        1.0,
        0.0,
        0.0,
        0.0,
        0.0,
        2.220446049250313e-16,
        -1.0,
        0.0,
        0.0,
        1.0,
        2.220446049250313e-16,
        0.0,
        0.0,
        0.0,
        0.0,
        1.0
      ],
      "name": "Sketchfab_model"
    },
    {
      "children": [
        2
      ],
      "matrix": [
        0.009999999776482582,
        0.0,
        0.0,
        0.0,
        0.0,
        0.0,
        0.009999999776482582,
        0.0,
        0.0,
        -0.009999999776482582,
        0.0,
        0.0,
        0.0,
        0.0,
        0.0,
        1.0
      ],
      "name": "9e300779f1944b69a2268c559977a22d.fbx"
    },
    {
      "children": [
        3
      ],
      "name": "RootNode"
    },
    {
      "children": [
        4,
        5,
        7,
        9
      ],
      "matrix": [
        100.0,
        0.0,
        0.0,
        0.0,
        0.0,
        -2.8212996916465727e-05,
        -99.99999999999602,
        0.0,
        0.0,
        99.99999999999602,
        -2.8212996916465727e-05,
        0.0,
        0.0,
        52.69160461425781,
        0.0,
        1.0
      ],
      "name": "SM_Overhead_light.001"
    },
    {
      "mesh": 0,
      "name": "SM_Overhead_light.001_T_Overhead_light_0"
    },
    {
      "children": [
        6
      ],
      "matrix": [
        1.0,
        0.0,
        0.0,
        0.0,
        0.0,
        1.0,
        -5.293955920339378e-23,
        0.0,
        0.0,
        5.293955920339378e-23,
        1.0,
        0.0,
        0.0,
        -0.9887061715126038,
        -0.08119513094425201,
        1.0
      ],
      "name": "Cube.012"
    },
    {
      "mesh": 1,
      "name": "Cube.012_T_Overhead_light_0"
    },
    {
      "children": [
        8
      ],
      "matrix": [
        1.0,
        0.0,
        0.0,
        0.0,
        0.0,
        -2.8212996916465727e-07,
        0.9999999999999603,
        0.0,
        0.0,
        -0.9999999999999603,
        -2.8212996916465727e-07,
        0.0,
        0.044536590576171875,
        0.003050088882446289,
        -0.09730696678161621,
        1.0
      ],
      "name": "Cylinder.068"
    },
    {
      "mesh": 2,
      "name": "Cylinder.068_T_Overhead_light_0"
    },
    {
      "children": [
        10
      ],
      "matrix": [
        1.0,
        0.0,
        0.0,
        0.0,
        0.0,
        -2.8212996916465727e-07,
        0.9999999999999603,
        0.0,
        0.0,
        -0.9999999999999603,
        -2.8212996916465727e-07,
        0.0,
        -0.04839515686035156,
        0.003050088882446289,
        -0.09730696678161621,
        1.0
      ],
      "name": "Cylinder.069"
    },
    {
      "mesh": 3,
      "name": "Cylinder.069_T_Overhead_light_0"
    }
  ],
  "samplers": [
    {
      "magFilter": 9729,
      "minFilter": 9987,
      "wrapS": 10497,
      "wrapT": 10497
    }
  ],
  "scene": 0,
  "scenes": [
    {
      "name": "Sketchfab_Scene",
      "nodes": [
        0
      ]
    }
  ],
  "textures": [
    {
      "sampler": 0,
      "source": 0
    },
    {
      "sampler": 0,
      "source": 1
    },
    {
      "sampler": 0,
      "source": 2
    },
    {
      "sampler": 0,
      "source": 3
    }
  ]
}
