{"accessors" : [{"bufferView" : 0, "byteOffset" : 0, "componentType" : 5123, "count" : 7896, "type" : "SCALAR", "max" : [7895], "min" : [0]}, {"bufferView" : 1, "byteOffset" : 0, "componentType" : 5126, "count" : 7896, "type" : "VEC3", "max" : [0.6368524432182312, 0.022149333730340004, 0.09581851959228516], "min" : [-0.6368473768234253, -1.219810128211975, -0.002270324621349573], "name" : "POSITION"}, {"bufferView" : 1, "byteOffset" : 12, "componentType" : 5126, "count" : 7896, "type" : "VEC3", "max" : [1.0000044107437134, 1.0000044107437134, 1.0000044107437134], "min" : [-1.0000044107437134, -1.0000044107437134, -1.0000044107437134], "name" : "NORMAL"}, {"bufferView" : 1, "byteOffset" : 24, "componentType" : 5126, "count" : 7896, "type" : "VEC2", "max" : [1, 0.9999117255210876], "min" : [-1.564621925354004E-07, 0], "name" : "TEXCOORD_0"}, {"bufferView" : 1, "byteOffset" : 32, "componentType" : 5126, "count" : 7896, "type" : "VEC2", "max" : [1, 1], "min" : [-1.564621925354004E-07, 0], "name" : "TEXCOORD_1"}, {"bufferView" : 0, "byteOffset" : 15792, "componentType" : 5123, "count" : 36, "type" : "SCALAR", "max" : [35], "min" : [0]}, {"bufferView" : 2, "byteOffset" : 0, "componentType" : 5126, "count" : 36, "type" : "VEC3", "max" : [0.6172360777854919, -0.003613939741626382, 0.054476331919431686], "min" : [-0.6172360777854919, -1.2001756429672241, 0.0536709800362587], "name" : "POSITION"}, {"bufferView" : 2, "byteOffset" : 12, "componentType" : 5126, "count" : 36, "type" : "VEC3", "max" : [0.0006712267058901489, 0.0006714611663483083, 1.0000040531158447], "min" : [-0.0006712267058901489, -0.0006711074966005981, -1.0000040531158447], "name" : "NORMAL"}, {"bufferView" : 2, "byteOffset" : 24, "componentType" : 5126, "count" : 36, "type" : "VEC2", "max" : [1, 1], "min" : [0, 0], "name" : "TEXCOORD_0"}, {"bufferView" : 2, "byteOffset" : 32, "componentType" : 5126, "count" : 36, "type" : "VEC2", "max" : [1, 1], "min" : [0, 0], "name" : "TEXCOORD_1"}, {"bufferView" : 0, "byteOffset" : 15864, "componentType" : 5123, "count" : 3456, "type" : "SCALAR", "max" : [3455], "min" : [0]}, {"bufferView" : 3, "byteOffset" : 0, "componentType" : 5126, "count" : 3456, "type" : "VEC3", "max" : [0.649245023727417, -0.013611589558422565, 0.06608705967664719], "min" : [0.6260346174240112, -1.9029606580734253, 0.024653051048517227], "name" : "POSITION"}, {"bufferView" : 3, "byteOffset" : 12, "componentType" : 5126, "count" : 3456, "type" : "VEC3", "max" : [0.9884138703346252, 0.9544029831886292, 0.9790136218070984], "min" : [-0.9829103350639343, -0.9658970236778259, -0.979004979133606], "name" : "NORMAL"}, {"bufferView" : 3, "byteOffset" : 24, "componentType" : 5126, "count" : 3456, "type" : "VEC2", "max" : [1, 1], "min" : [0, 0], "name" : "TEXCOORD_0"}, {"bufferView" : 3, "byteOffset" : 32, "componentType" : 5126, "count" : 3456, "type" : "VEC2", "max" : [0, 1], "min" : [0, 1], "name" : "TEXCOORD_1"}, {"bufferView" : 0, "byteOffset" : 22776, "componentType" : 5123, "count" : 33132, "type" : "SCALAR", "max" : [33131], "min" : [0]}, {"bufferView" : 4, "byteOffset" : 0, "componentType" : 5126, "count" : 33132, "type" : "VEC3", "max" : [0.8060860633850098, 0.05706167221069336, 2.8028509616851807], "min" : [-0.05395019054412842, -1.8597817420959473, -2.8028297424316406], "name" : "POSITION"}, {"bufferView" : 4, "byteOffset" : 12, "componentType" : 5126, "count" : 33132, "type" : "VEC3", "max" : [0.9960876107215881, 0.9960938096046448, 1.0000044107437134], "min" : [-0.9960911273956299, -0.9961031079292297, -1.0000041723251343], "name" : "NORMAL"}, {"bufferView" : 4, "byteOffset" : 24, "componentType" : 5126, "count" : 33132, "type" : "VEC2", "max" : [0.9999998807907104, 1], "min" : [0, 0.15638011693954468], "name" : "TEXCOORD_0"}, {"bufferView" : 0, "byteOffset" : 89040, "componentType" : 5123, "count" : 1764, "type" : "SCALAR", "max" : [1763], "min" : [0]}, {"bufferView" : 5, "byteOffset" : 0, "componentType" : 5126, "count" : 1764, "type" : "VEC3", "max" : [2.837977170944214, 0.020000100135803223, 0.019999980926513672], "min" : [-2.8275234699249268, -0.01999986171722412, -0.019999980926513672], "name" : "POSITION"}, {"bufferView" : 5, "byteOffset" : 12, "componentType" : 5126, "count" : 1764, "type" : "VEC3", "max" : [1.0000044107437134, 1.0000044107437134, 1.0000044107437134], "min" : [-1.0000044107437134, -1.0000044107437134, -1.0000044107437134], "name" : "NORMAL"}, {"bufferView" : 5, "byteOffset" : 24, "componentType" : 5126, "count" : 1764, "type" : "VEC2", "max" : [1.0000001192092896, 1], "min" : [0, -1.1920928955078125E-07], "name" : "TEXCOORD_0"}], "asset" : {"generator" : "Aspose.3D 24.9.1", "version" : "2.0"}, "buffers" : [{"uri" : "data:application/octet-stream;base64,", "byteLength" : 1664784}], "bufferViews" : [{"buffer" : 0, "byteOffset" : 0, "byteLength" : 92568, "target" : 34963}, {"buffer" : 0, "byteOffset" : 92572, "byteLength" : 315840, "byteStride" : 40, "target" : 34962}, {"buffer" : 0, "byteOffset" : 408416, "byteLength" : 1440, "byteStride" : 40, "target" : 34962}, {"buffer" : 0, "byteOffset" : 409860, "byteLength" : 138240, "byteStride" : 40, "target" : 34962}, {"buffer" : 0, "byteOffset" : 548104, "byteLength" : 1060224, "byteStride" : 32, "target" : 34962}, {"buffer" : 0, "byteOffset" : 1608332, "byteLength" : 56448, "byteStride" : 32, "target" : 34962}], "materials" : [{"name" : "blinds_plastic", "pbrMetallicRoughness" : {"baseColorFactor" : [1, 1, 1, 1], "metallicFactor" : 1, "roughnessFactor" : 1}, "emissiveFactor" : [0, 0, 0], "alphaMode" : "OPAQUE", "doubleSided" : false}, {"name" : "blinds_fabric", "pbrMetallicRoughness" : {"baseColorFactor" : [0.800000011920929, 0.800000011920929, 0.800000011920929, 1], "metallicFactor" : 1, "roughnessFactor" : 1}, "emissiveFactor" : [0, 0, 0], "alphaMode" : "OPAQUE", "doubleSided" : false}, {"name" : "blinds_tie", "pbrMetallicRoughness" : {"baseColorFactor" : [0.02909955009818077, 0.02909955009818077, 0.02909955009818077, 1], "metallicFactor" : 1, "roughnessFactor" : 1}, "emissiveFactor" : [0, 0, 0], "alphaMode" : "OPAQUE", "doubleSided" : false}, {"name" : "blinds_fabric.001", "pbrMetallicRoughness" : {"baseColorFactor" : [0.800000011920929, 0.800000011920929, 0.800000011920929, 1], "metallicFactor" : 1, "roughnessFactor" : 1}, "emissiveFactor" : [0, 0, 0], "alphaMode" : "OPAQUE", "doubleSided" : false}, {"name" : "rubber", "pbrMetallicRoughness" : {"baseColorFactor" : [0.8000000715255737, 0.6688082218170166, 0.38917818665504456, 1], "metallicFactor" : 1, "roughnessFactor" : 1}, "emissiveFactor" : [0, 0, 0], "alphaMode" : "OPAQUE", "doubleSided" : false}], "meshes" : [{"primitives" : [{"attributes" : {"POSITION" : 1, "NORMAL" : 2, "TEXCOORD_0" : 3, "TEXCOORD_1" : 4}, "indices" : 0, "material" : 0, "mode" : 4}, {"attributes" : {"POSITION" : 6, "NORMAL" : 7, "TEXCOORD_0" : 8, "TEXCOORD_1" : 9}, "indices" : 5, "material" : 1, "mode" : 4}, {"attributes" : {"POSITION" : 11, "NORMAL" : 12, "TEXCOORD_0" : 13, "TEXCOORD_1" : 14}, "indices" : 10, "material" : 2, "mode" : 4}], "name" : "Cylinder.001"}, {"primitives" : [{"attributes" : {"POSITION" : 16, "NORMAL" : 17, "TEXCOORD_0" : 18}, "indices" : 15, "material" : 3, "mode" : 4}], "name" : "Spiral.004"}, {"primitives" : [{"attributes" : {"POSITION" : 20, "NORMAL" : 21, "TEXCOORD_0" : 22}, "indices" : 19, "material" : 4, "mode" : 4}], "name" : "Plane.089"}], "nodes" : [{"matrix" : [1.2343597412109375, 0, 0, 0, 0, 1.234359622001648, 3.552713682186015E-15, 0, 0, -3.552713682186015E-15, 1.234359622001648, 0, 0, 0.02623879350721836, 0.1242518424987793, 1], "mesh" : 0, "name" : "Cylinder"}, {"children" : [0], "matrix" : [355.1693115234375, 0, 0, 0, 0, 81.01366424560538, 3.541219446552724E-06, 0, 0, -3.541219446552724E-06, 81.01366424560538, 0, -0.28133344650268555, 261.9604187011719, -239.7330322265625, 1], "name" : "Basic Blinds"}, {"matrix" : [2.9306379808406253E-05, -37.06132789124934, -92.8787190321744, 0, 5.631172789809393E-06, 92.87871903217886, -37.06132789124934, 0, 99.99999999999555, 5.631173219433815E-06, 2.930638204430576E-05, 0, -0.28133392333984375, 264.21533203125, 233.23597717285156, 1], "mesh" : 1, "name" : "Spiral.004"}, {"matrix" : [100, 0, 0, 0, 0, -1.6292067955264296E-05, -99.99999999999866, 0, 0, 99.99999999999866, -1.6292067955264296E-05, 0, -0.28133344650268555, 61.65268325805664, 228.01026916503906, 1], "mesh" : 2, "name" : "Plane"}], "scene" : 0, "scenes" : [{"nodes" : [1, 2, 3]}]}